<?xml version="1.0" encoding="UTF-8" standalone="no"?>
<!-- Created with Inkscape (http://www.inkscape.org/) -->

<svg
   width="210mm"
   height="297mm"
   viewBox="0 0 210 297"
   version="1.1"
   id="svg8"
   inkscape:version="1.1.1 (3bf5ae0d25, 2021-09-20)"
   sodipodi:docname="icon.svg"
   xmlns:inkscape="http://www.inkscape.org/namespaces/inkscape"
   xmlns:sodipodi="http://sodipodi.sourceforge.net/DTD/sodipodi-0.dtd"
   xmlns="http://www.w3.org/2000/svg"
   xmlns:svg="http://www.w3.org/2000/svg"
   xmlns:rdf="http://www.w3.org/1999/02/22-rdf-syntax-ns#"
   xmlns:cc="http://creativecommons.org/ns#"
   xmlns:dc="http://purl.org/dc/elements/1.1/">
  <defs
     id="defs2" />
  <sodipodi:namedview
     id="base"
     pagecolor="#ffffff"
     bordercolor="#666666"
     borderopacity="1.0"
     inkscape:pageopacity="0.0"
     inkscape:pageshadow="2"
     inkscape:zoom="0.16403309"
     inkscape:cx="-396.26151"
     inkscape:cy="746.80054"
     inkscape:document-units="mm"
     inkscape:current-layer="layer1"
     showgrid="false"
     inkscape:window-width="1330"
     inkscape:window-height="743"
     inkscape:window-x="36"
     inkscape:window-y="0"
     inkscape:window-maximized="1"
     inkscape:pagecheckerboard="0" />
  <metadata
     id="metadata5">
    <rdf:RDF>
      <cc:Work
         rdf:about="">
        <dc:format>image/svg+xml</dc:format>
        <dc:type
           rdf:resource="http://purl.org/dc/dcmitype/StillImage" />
        <dc:title />
      </cc:Work>
    </rdf:RDF>
  </metadata>
  <g
     inkscape:label="Layer 1"
     inkscape:groupmode="layer"
     id="layer1">
    <rect
       style="fill:#6366f1;fill-opacity:1;stroke-width:0.264583"
       id="rect815"
       width="339.423"
       height="339.42264"
       x="-308.51166"
       y="-14.452381"
       inkscape:export-xdpi="74.832954"
       inkscape:export-ydpi="74.832954"
       inkscape:export-filename="/home/zen/aplikasi-android/coffeescript-runner/tambahan/icon.png" />
    <g
       id="g841"
       transform="matrix(3.5525264,0,0,3.5525264,-202.74563,91.313463)">
      <path
         fill="currentColor"
         d="M 6.25,11.5 12,13.16 18.32,8.57 9.25,8.83 A 0.52,0.52 0 0 0 9,8.91 l -2.87,1.65 a 0.51,0.51 0 0 0 0.12,0.94 z"
         class="clr-i-solid clr-i-solid-path-1"
         id="path826-3" />
      <path
         fill="currentColor"
         d="M 34.52,6.36 28.22,5 A 3.78,3.78 0 0 0 25.15,5.67 L 6.12,19.5 1.55,19.3 a 1.25,1.25 0 0 0 -0.83,2.22 l 4.45,3.53 a 0.55,0.55 0 0 0 0.53,0.09 c 1.27,-0.49 6,-3 11.59,-6.07 l 1.12,11.51 a 0.55,0.55 0 0 0 0.9,0.37 l 2.5,-2.08 a 0.76,0.76 0 0 0 0.26,-0.45 l 2.37,-13.29 c 4,-2.22 7.82,-4.37 10.51,-5.89 A 1.55,1.55 0 0 0 34.52,6.36 Z"
         class="clr-i-solid clr-i-solid-path-2"
         id="path828" />
      <path
         fill="none"
         d="M 0,0 H 36 V 36 H 0 Z"
         id="path830" />
    </g>
  </g>
</svg>
